%TF.GenerationSoftware,KiCad,Pcbnew,(6.99.0-906-ga2ca8cf413)*%
%TF.CreationDate,2022-04-09T13:07:01+02:00*%
%TF.ProjectId,tiny20,74696e79-3230-42e6-9b69-6361645f7063,v1.0.0*%
%TF.SameCoordinates,Original*%
%TF.FileFunction,Soldermask,Top*%
%TF.FilePolarity,Negative*%
%FSLAX46Y46*%
G04 Gerber Fmt 4.6, Leading zero omitted, Abs format (unit mm)*
G04 Created by KiCad (PCBNEW (6.99.0-906-ga2ca8cf413)) date 2022-04-09 13:07:01*
%MOMM*%
%LPD*%
G01*
G04 APERTURE LIST*
G04 Aperture macros list*
%AMRoundRect*
0 Rectangle with rounded corners*
0 $1 Rounding radius*
0 $2 $3 $4 $5 $6 $7 $8 $9 X,Y pos of 4 corners*
0 Add a 4 corners polygon primitive as box body*
4,1,4,$2,$3,$4,$5,$6,$7,$8,$9,$2,$3,0*
0 Add four circle primitives for the rounded corners*
1,1,$1+$1,$2,$3*
1,1,$1+$1,$4,$5*
1,1,$1+$1,$6,$7*
1,1,$1+$1,$8,$9*
0 Add four rect primitives between the rounded corners*
20,1,$1+$1,$2,$3,$4,$5,0*
20,1,$1+$1,$4,$5,$6,$7,0*
20,1,$1+$1,$6,$7,$8,$9,0*
20,1,$1+$1,$8,$9,$2,$3,0*%
%AMHorizOval*
0 Thick line with rounded ends*
0 $1 width*
0 $2 $3 position (X,Y) of the first rounded end (center of the circle)*
0 $4 $5 position (X,Y) of the second rounded end (center of the circle)*
0 Add line between two ends*
20,1,$1,$2,$3,$4,$5,0*
0 Add two circle primitives to create the rounded ends*
1,1,$1,$2,$3*
1,1,$1,$4,$5*%
G04 Aperture macros list end*
%ADD10C,0.100000*%
%ADD11RoundRect,0.050000X0.550000X-0.900000X0.550000X0.900000X-0.550000X0.900000X-0.550000X-0.900000X0*%
%ADD12C,1.801800*%
%ADD13C,3.529000*%
%ADD14C,2.132000*%
%ADD15C,1.600000*%
%ADD16HorizOval,1.700000X-0.026147X0.298858X0.026147X-0.298858X0*%
%ADD17C,1.000000*%
%ADD18RoundRect,0.050000X-0.876300X0.876300X-0.876300X-0.876300X0.876300X-0.876300X0.876300X0.876300X0*%
%ADD19C,1.852600*%
G04 APERTURE END LIST*
D10*
%TO.C,SW01*%
X280367252Y-104497882D02*
X280367252Y-105197882D01*
X280367252Y-105197882D02*
X279467252Y-105197882D01*
X279467252Y-105197882D02*
X279467252Y-104497882D01*
X279467252Y-104497882D02*
X280367252Y-104497882D01*
G36*
X280367252Y-105197882D02*
G01*
X279467252Y-105197882D01*
X279467252Y-104497882D01*
X280367252Y-104497882D01*
X280367252Y-105197882D01*
G37*
X280367252Y-105197882D02*
X279467252Y-105197882D01*
X279467252Y-104497882D01*
X280367252Y-104497882D01*
X280367252Y-105197882D01*
X280367252Y-102297882D02*
X280367252Y-102997882D01*
X280367252Y-102997882D02*
X279467252Y-102997882D01*
X279467252Y-102997882D02*
X279467252Y-102297882D01*
X279467252Y-102297882D02*
X280367252Y-102297882D01*
G36*
X280367252Y-102997882D02*
G01*
X279467252Y-102997882D01*
X279467252Y-102297882D01*
X280367252Y-102297882D01*
X280367252Y-102997882D01*
G37*
X280367252Y-102997882D02*
X279467252Y-102997882D01*
X279467252Y-102297882D01*
X280367252Y-102297882D01*
X280367252Y-102997882D01*
X278817252Y-104797882D02*
X278817252Y-106197882D01*
X278817252Y-106197882D02*
X278217252Y-106197882D01*
X278217252Y-106197882D02*
X278217252Y-104797882D01*
X278217252Y-104797882D02*
X278817252Y-104797882D01*
G36*
X278817252Y-106197882D02*
G01*
X278217252Y-106197882D01*
X278217252Y-104797882D01*
X278817252Y-104797882D01*
X278817252Y-106197882D01*
G37*
X278817252Y-106197882D02*
X278217252Y-106197882D01*
X278217252Y-104797882D01*
X278817252Y-104797882D01*
X278817252Y-106197882D01*
X275817252Y-104797882D02*
X275817252Y-106197882D01*
X275817252Y-106197882D02*
X275217252Y-106197882D01*
X275217252Y-106197882D02*
X275217252Y-104797882D01*
X275217252Y-104797882D02*
X275817252Y-104797882D01*
G36*
X275817252Y-106197882D02*
G01*
X275217252Y-106197882D01*
X275217252Y-104797882D01*
X275817252Y-104797882D01*
X275817252Y-106197882D01*
G37*
X275817252Y-106197882D02*
X275217252Y-106197882D01*
X275217252Y-104797882D01*
X275817252Y-104797882D01*
X275817252Y-106197882D01*
X274317252Y-104797882D02*
X274317252Y-106197882D01*
X274317252Y-106197882D02*
X273717252Y-106197882D01*
X273717252Y-106197882D02*
X273717252Y-104797882D01*
X273717252Y-104797882D02*
X274317252Y-104797882D01*
G36*
X274317252Y-106197882D02*
G01*
X273717252Y-106197882D01*
X273717252Y-104797882D01*
X274317252Y-104797882D01*
X274317252Y-106197882D01*
G37*
X274317252Y-106197882D02*
X273717252Y-106197882D01*
X273717252Y-104797882D01*
X274317252Y-104797882D01*
X274317252Y-106197882D01*
X273067252Y-104497882D02*
X273067252Y-105197882D01*
X273067252Y-105197882D02*
X272167252Y-105197882D01*
X272167252Y-105197882D02*
X272167252Y-104497882D01*
X272167252Y-104497882D02*
X273067252Y-104497882D01*
G36*
X273067252Y-105197882D02*
G01*
X272167252Y-105197882D01*
X272167252Y-104497882D01*
X273067252Y-104497882D01*
X273067252Y-105197882D01*
G37*
X273067252Y-105197882D02*
X272167252Y-105197882D01*
X272167252Y-104497882D01*
X273067252Y-104497882D01*
X273067252Y-105197882D01*
X273067252Y-102297882D02*
X273067252Y-102997882D01*
X273067252Y-102997882D02*
X272167252Y-102997882D01*
X272167252Y-102997882D02*
X272167252Y-102297882D01*
X272167252Y-102297882D02*
X273067252Y-102297882D01*
G36*
X273067252Y-102997882D02*
G01*
X272167252Y-102997882D01*
X272167252Y-102297882D01*
X273067252Y-102297882D01*
X273067252Y-102997882D01*
G37*
X273067252Y-102997882D02*
X272167252Y-102997882D01*
X272167252Y-102297882D01*
X273067252Y-102297882D01*
X273067252Y-102997882D01*
%TO.C,BT01*%
X280677255Y-137987881D02*
X280677255Y-135987881D01*
X280677255Y-135987881D02*
X282077255Y-135987881D01*
X282077255Y-135987881D02*
X282077255Y-137987881D01*
X282077255Y-137987881D02*
X280677255Y-137987881D01*
G36*
X282077255Y-137987881D02*
G01*
X280677255Y-137987881D01*
X280677255Y-135987881D01*
X282077255Y-135987881D01*
X282077255Y-137987881D01*
G37*
X282077255Y-137987881D02*
X280677255Y-137987881D01*
X280677255Y-135987881D01*
X282077255Y-135987881D01*
X282077255Y-137987881D01*
X278477255Y-137987881D02*
X278477255Y-135987881D01*
X278477255Y-135987881D02*
X279877255Y-135987881D01*
X279877255Y-135987881D02*
X279877255Y-137987881D01*
X279877255Y-137987881D02*
X278477255Y-137987881D01*
G36*
X279877255Y-137987881D02*
G01*
X278477255Y-137987881D01*
X278477255Y-135987881D01*
X279877255Y-135987881D01*
X279877255Y-137987881D01*
G37*
X279877255Y-137987881D02*
X278477255Y-137987881D01*
X278477255Y-135987881D01*
X279877255Y-135987881D01*
X279877255Y-137987881D01*
%TD*%
D11*
%TO.C,B1*%
X206703309Y-114882746D03*
X206703309Y-108682746D03*
X210403309Y-114882746D03*
X210403309Y-108682746D03*
%TD*%
D12*
%TO.C,S3*%
X216530147Y-125990773D03*
D13*
X222030147Y-125990773D03*
D12*
X227530147Y-125990773D03*
D14*
X217030147Y-122190773D03*
X227030147Y-122190773D03*
X222030147Y-120090773D03*
X222030147Y-120090773D03*
%TD*%
D12*
%TO.C,S9*%
X260030146Y-141490776D03*
D13*
X260030146Y-146990776D03*
D12*
X260030146Y-152490776D03*
D14*
X263830146Y-141990776D03*
X263830146Y-151990776D03*
X265930146Y-146990776D03*
X265930146Y-146990776D03*
%TD*%
D12*
%TO.C,S7*%
X252530146Y-126990772D03*
D13*
X258030146Y-126990772D03*
D12*
X263530146Y-126990772D03*
D14*
X253030146Y-123190772D03*
X263030146Y-123190772D03*
X258030146Y-121090772D03*
X258030146Y-121090772D03*
%TD*%
D12*
%TO.C,S4*%
X216530147Y-108990773D03*
D13*
X222030147Y-108990773D03*
D12*
X227530147Y-108990773D03*
D14*
X217030147Y-105190773D03*
X227030147Y-105190773D03*
X222030147Y-103090773D03*
X222030147Y-103090773D03*
%TD*%
D12*
%TO.C,S6*%
X234530147Y-103990775D03*
D13*
X240030147Y-103990775D03*
D12*
X245530147Y-103990775D03*
D14*
X235030147Y-100190775D03*
X245030147Y-100190775D03*
X240030147Y-98090775D03*
X240030147Y-98090775D03*
%TD*%
D12*
%TO.C,S1*%
X198312441Y-143004483D03*
D13*
X203791512Y-142525126D03*
D12*
X209270583Y-142045769D03*
D14*
X198479347Y-139175365D03*
X208441294Y-138303807D03*
X203277293Y-136647577D03*
X203277293Y-136647577D03*
%TD*%
D12*
%TO.C,S8*%
X252530147Y-109990774D03*
D13*
X258030147Y-109990774D03*
D12*
X263530147Y-109990774D03*
D14*
X253030147Y-106190774D03*
X263030147Y-106190774D03*
X258030147Y-104090774D03*
X258030147Y-104090774D03*
%TD*%
D15*
%TO.C,REF\u002A\u002A*%
X198037651Y-106589861D03*
X198647741Y-113563224D03*
X200328898Y-106389403D03*
X200938989Y-113362766D03*
D16*
X198883060Y-116252949D03*
X201174308Y-116052490D03*
X196495941Y-115357593D03*
X203369685Y-114756218D03*
X196147318Y-111372814D03*
X203021062Y-110771439D03*
X195885851Y-108384230D03*
X202759594Y-107782855D03*
%TD*%
D12*
%TO.C,S2*%
X196830792Y-126069171D03*
D13*
X202309863Y-125589814D03*
D12*
X207788934Y-125110457D03*
D14*
X196997698Y-122240053D03*
X206959645Y-121368495D03*
X201795644Y-119712265D03*
X201795644Y-119712265D03*
%TD*%
D17*
%TO.C,SW01*%
X277767252Y-103747882D03*
X277767252Y-103747882D03*
X274767252Y-103747882D03*
X274767252Y-103747882D03*
%TD*%
D18*
%TO.C,MCU1*%
X268460146Y-105520774D03*
D19*
X268460146Y-108060774D03*
X268460146Y-110600774D03*
X268460146Y-113140774D03*
X268460146Y-115680774D03*
X268460146Y-118220774D03*
X268460146Y-120760774D03*
X268460146Y-123300774D03*
X268460146Y-125840774D03*
X268460146Y-128380774D03*
X268460146Y-130920774D03*
X268460146Y-133460774D03*
X283700146Y-105520774D03*
X283700146Y-108060774D03*
X283700146Y-110600774D03*
X283700146Y-113140774D03*
X283700146Y-115680774D03*
X283700146Y-118220774D03*
X283700146Y-120760774D03*
X283700146Y-123300774D03*
X283700146Y-125840774D03*
X283700146Y-128380774D03*
X283700146Y-130920774D03*
X283700146Y-133460774D03*
%TD*%
D12*
%TO.C,S10*%
X277030146Y-152490773D03*
D13*
X277030146Y-146990773D03*
D12*
X277030146Y-141490773D03*
D14*
X273230146Y-151990773D03*
X273230146Y-141990773D03*
X271130146Y-146990773D03*
X271130146Y-146990773D03*
%TD*%
D12*
%TO.C,S5*%
X234530145Y-120990774D03*
D13*
X240030145Y-120990774D03*
D12*
X245530145Y-120990774D03*
D14*
X235030145Y-117190774D03*
X245030145Y-117190774D03*
X240030145Y-115090774D03*
X240030145Y-115090774D03*
%TD*%
M02*
