%TF.GenerationSoftware,KiCad,Pcbnew,(6.99.0-906-ga2ca8cf413)*%
%TF.CreationDate,2022-04-09T13:07:01+02:00*%
%TF.ProjectId,tiny20,74696e79-3230-42e6-9b69-6361645f7063,v1.0.0*%
%TF.SameCoordinates,Original*%
%TF.FileFunction,Legend,Bot*%
%TF.FilePolarity,Positive*%
%FSLAX46Y46*%
G04 Gerber Fmt 4.6, Leading zero omitted, Abs format (unit mm)*
G04 Created by KiCad (PCBNEW (6.99.0-906-ga2ca8cf413)) date 2022-04-09 13:07:01*
%MOMM*%
%LPD*%
G01*
G04 APERTURE LIST*
%ADD10C,0.120000*%
%ADD11C,0.150000*%
%ADD12R,1.752600X1.752600*%
%ADD13C,1.752600*%
G04 APERTURE END LIST*
D10*
%TO.C,BT01*%
X282348684Y-134716452D02*
X282205827Y-134764071D01*
X282205827Y-134764071D02*
X282158208Y-134811690D01*
X282158208Y-134811690D02*
X282110589Y-134906928D01*
X282110589Y-134906928D02*
X282110589Y-135049785D01*
X282110589Y-135049785D02*
X282158208Y-135145023D01*
X282158208Y-135145023D02*
X282205827Y-135192642D01*
X282205827Y-135192642D02*
X282301065Y-135240261D01*
X282301065Y-135240261D02*
X282682017Y-135240261D01*
X282682017Y-135240261D02*
X282682017Y-134240261D01*
X282682017Y-134240261D02*
X282348684Y-134240261D01*
X282348684Y-134240261D02*
X282253446Y-134287881D01*
X282253446Y-134287881D02*
X282205827Y-134335500D01*
X282205827Y-134335500D02*
X282158208Y-134430738D01*
X282158208Y-134430738D02*
X282158208Y-134525976D01*
X282158208Y-134525976D02*
X282205827Y-134621214D01*
X282205827Y-134621214D02*
X282253446Y-134668833D01*
X282253446Y-134668833D02*
X282348684Y-134716452D01*
X282348684Y-134716452D02*
X282682017Y-134716452D01*
X281253446Y-135240261D02*
X281253446Y-134716452D01*
X281253446Y-134716452D02*
X281301065Y-134621214D01*
X281301065Y-134621214D02*
X281396303Y-134573595D01*
X281396303Y-134573595D02*
X281586779Y-134573595D01*
X281586779Y-134573595D02*
X281682017Y-134621214D01*
X281253446Y-135192642D02*
X281348684Y-135240261D01*
X281348684Y-135240261D02*
X281586779Y-135240261D01*
X281586779Y-135240261D02*
X281682017Y-135192642D01*
X281682017Y-135192642D02*
X281729636Y-135097404D01*
X281729636Y-135097404D02*
X281729636Y-135002166D01*
X281729636Y-135002166D02*
X281682017Y-134906928D01*
X281682017Y-134906928D02*
X281586779Y-134859309D01*
X281586779Y-134859309D02*
X281348684Y-134859309D01*
X281348684Y-134859309D02*
X281253446Y-134811690D01*
X280920112Y-134573595D02*
X280539160Y-134573595D01*
X280777255Y-134240261D02*
X280777255Y-135097404D01*
X280777255Y-135097404D02*
X280729636Y-135192642D01*
X280729636Y-135192642D02*
X280634398Y-135240261D01*
X280634398Y-135240261D02*
X280539160Y-135240261D01*
X280348683Y-134573595D02*
X279967731Y-134573595D01*
X280205826Y-134240261D02*
X280205826Y-135097404D01*
X280205826Y-135097404D02*
X280158207Y-135192642D01*
X280158207Y-135192642D02*
X280062969Y-135240261D01*
X280062969Y-135240261D02*
X279967731Y-135240261D01*
X279253445Y-135192642D02*
X279348683Y-135240261D01*
X279348683Y-135240261D02*
X279539159Y-135240261D01*
X279539159Y-135240261D02*
X279634397Y-135192642D01*
X279634397Y-135192642D02*
X279682016Y-135097404D01*
X279682016Y-135097404D02*
X279682016Y-134716452D01*
X279682016Y-134716452D02*
X279634397Y-134621214D01*
X279634397Y-134621214D02*
X279539159Y-134573595D01*
X279539159Y-134573595D02*
X279348683Y-134573595D01*
X279348683Y-134573595D02*
X279253445Y-134621214D01*
X279253445Y-134621214D02*
X279205826Y-134716452D01*
X279205826Y-134716452D02*
X279205826Y-134811690D01*
X279205826Y-134811690D02*
X279682016Y-134906928D01*
X278777254Y-135240261D02*
X278777254Y-134573595D01*
X278777254Y-134764071D02*
X278729635Y-134668833D01*
X278729635Y-134668833D02*
X278682016Y-134621214D01*
X278682016Y-134621214D02*
X278586778Y-134573595D01*
X278586778Y-134573595D02*
X278491540Y-134573595D01*
X278253444Y-134573595D02*
X278015349Y-135240261D01*
X277777254Y-134573595D02*
X278015349Y-135240261D01*
X278015349Y-135240261D02*
X278110587Y-135478357D01*
X278110587Y-135478357D02*
X278158206Y-135525976D01*
X278158206Y-135525976D02*
X278253444Y-135573595D01*
X281986778Y-139754547D02*
X282024873Y-139716452D01*
X282024873Y-139716452D02*
X282101064Y-139602166D01*
X282101064Y-139602166D02*
X282139159Y-139525976D01*
X282139159Y-139525976D02*
X282177254Y-139411690D01*
X282177254Y-139411690D02*
X282215349Y-139221214D01*
X282215349Y-139221214D02*
X282215349Y-139068833D01*
X282215349Y-139068833D02*
X282177254Y-138878357D01*
X282177254Y-138878357D02*
X282139159Y-138764071D01*
X282139159Y-138764071D02*
X282101064Y-138687881D01*
X282101064Y-138687881D02*
X282024873Y-138573595D01*
X282024873Y-138573595D02*
X281986778Y-138535500D01*
X281682016Y-139145023D02*
X281072493Y-139145023D01*
X281377254Y-139449785D02*
X281377254Y-138840261D01*
X280767731Y-139754547D02*
X280729636Y-139716452D01*
X280729636Y-139716452D02*
X280653445Y-139602166D01*
X280653445Y-139602166D02*
X280615350Y-139525976D01*
X280615350Y-139525976D02*
X280577255Y-139411690D01*
X280577255Y-139411690D02*
X280539159Y-139221214D01*
X280539159Y-139221214D02*
X280539159Y-139068833D01*
X280539159Y-139068833D02*
X280577255Y-138878357D01*
X280577255Y-138878357D02*
X280615350Y-138764071D01*
X280615350Y-138764071D02*
X280653445Y-138687881D01*
X280653445Y-138687881D02*
X280729636Y-138573595D01*
X280729636Y-138573595D02*
X280767731Y-138535500D01*
X279786778Y-139754547D02*
X279824873Y-139716452D01*
X279824873Y-139716452D02*
X279901064Y-139602166D01*
X279901064Y-139602166D02*
X279939159Y-139525976D01*
X279939159Y-139525976D02*
X279977254Y-139411690D01*
X279977254Y-139411690D02*
X280015349Y-139221214D01*
X280015349Y-139221214D02*
X280015349Y-139068833D01*
X280015349Y-139068833D02*
X279977254Y-138878357D01*
X279977254Y-138878357D02*
X279939159Y-138764071D01*
X279939159Y-138764071D02*
X279901064Y-138687881D01*
X279901064Y-138687881D02*
X279824873Y-138573595D01*
X279824873Y-138573595D02*
X279786778Y-138535500D01*
X279482016Y-139145023D02*
X278872493Y-139145023D01*
X278567731Y-139754547D02*
X278529636Y-139716452D01*
X278529636Y-139716452D02*
X278453445Y-139602166D01*
X278453445Y-139602166D02*
X278415350Y-139525976D01*
X278415350Y-139525976D02*
X278377255Y-139411690D01*
X278377255Y-139411690D02*
X278339159Y-139221214D01*
X278339159Y-139221214D02*
X278339159Y-139068833D01*
X278339159Y-139068833D02*
X278377255Y-138878357D01*
X278377255Y-138878357D02*
X278415350Y-138764071D01*
X278415350Y-138764071D02*
X278453445Y-138687881D01*
X278453445Y-138687881D02*
X278529636Y-138573595D01*
X278529636Y-138573595D02*
X278567731Y-138535500D01*
D11*
%TO.C,B2*%
X209803309Y-109032746D02*
X211303309Y-110532746D01*
X207303309Y-109032746D02*
X209803309Y-109032746D01*
X207303309Y-109032746D02*
X205803309Y-110532746D01*
X211303309Y-110532746D02*
X211303309Y-113032746D01*
X205803309Y-110532746D02*
X205803309Y-113032746D01*
X209803309Y-114532746D02*
X211303309Y-113032746D01*
X207303309Y-114532746D02*
X205803309Y-113032746D01*
X207303309Y-114532746D02*
X209803309Y-114532746D01*
%TD*%
D12*
%TO.C,MCU1*%
X268460145Y-105520773D03*
D13*
X268460146Y-108060774D03*
X268460146Y-110600774D03*
X268460146Y-113140774D03*
X268460146Y-115680774D03*
X268460146Y-118220774D03*
X268460146Y-120760774D03*
X268460146Y-123300774D03*
X268460146Y-125840774D03*
X268460146Y-128380774D03*
X268460146Y-130920774D03*
X268460146Y-133460774D03*
X283700146Y-105520774D03*
X283700146Y-108060774D03*
X283700146Y-110600774D03*
X283700146Y-113140774D03*
X283700146Y-115680774D03*
X283700146Y-118220774D03*
X283700146Y-120760774D03*
X283700146Y-123300774D03*
X283700146Y-125840774D03*
X283700146Y-128380774D03*
X283700146Y-130920774D03*
X283700146Y-133460774D03*
%TD*%
M02*
