M48
; DRILL file {KiCad 6.99.0} date Wed 29 Dec 2021 05:54:07 PM CET
; FORMAT={-:-/ absolute / inch / decimal}
; #@! TF.CreationDate,2021-12-29T17:54:07+01:00
; #@! TF.GenerationSoftware,Kicad,Pcbnew,6.99.0
; #@! TF.FileFunction,Plated,1,2,PTH
FMAT,2
INCH
; #@! TA.AperFunction,Plated,PTH,ViaDrill
T1C0.0157
; #@! TA.AperFunction,Plated,PTH,ComponentDrill
T2C0.0354
; #@! TA.AperFunction,Plated,PTH,ComponentDrill
T3C0.0430
; #@! TA.AperFunction,Plated,PTH,ComponentDrill
T4C0.0500
%
G90
G05
T1
X7.313Y-4.6437
X7.313Y-4.8878
T3
X9.7374Y-4.6291
X9.7374Y-4.7291
X9.7374Y-4.8291
X9.7374Y-4.9291
X9.7374Y-5.0291
X9.7374Y-5.1291
X9.7374Y-5.2291
X9.7374Y-5.3291
X9.7374Y-5.4291
X9.7374Y-5.5291
X9.7374Y-5.6291
X9.7374Y-5.7291
X10.3374Y-4.6291
X10.3374Y-4.7291
X10.3374Y-4.8291
X10.3374Y-4.9291
X10.3374Y-5.0291
X10.3374Y-5.1291
X10.3374Y-5.2291
X10.3374Y-5.3291
X10.3374Y-5.4291
X10.3374Y-5.5291
X10.3374Y-5.6291
X10.3374Y-5.7291
T4
X6.9445Y-5.2865
X7.0083Y-6.016
X7.1334Y-5.187
X7.1334Y-5.187
X7.2116Y-6.0812
X7.2116Y-6.0812
X7.3367Y-5.2522
X7.4005Y-5.9817
X7.7126Y-4.6161
X7.7126Y-5.3484
X7.9094Y-4.5335
X7.9094Y-4.5335
X7.9094Y-5.4311
X7.9094Y-5.4311
X8.1063Y-4.6161
X8.1063Y-5.3484
X8.4213Y-4.4193
X8.4213Y-5.1516
X8.6181Y-4.3366
X8.6181Y-4.3366
X8.6181Y-5.2343
X8.6181Y-5.2343
X8.815Y-4.4193
X8.815Y-5.1516
X9.1299Y-4.6555
X9.1299Y-5.3878
X9.3268Y-4.5728
X9.3268Y-4.5728
X9.3268Y-5.4705
X9.3268Y-5.4705
X9.4094Y-6.2224
X9.4094Y-6.2224
X9.4921Y-6.0256
X9.4921Y-6.4193
X9.5236Y-4.6555
X9.5236Y-5.3878
X10.2244Y-6.0256
X10.2244Y-6.4193
X10.3071Y-6.2224
X10.3071Y-6.2224
T2
G00X6.956Y-4.635
M15
G01X6.958Y-4.6585
M16
G05
G00X6.9663Y-4.7526
M15
G01X6.9683Y-4.7762
M16
G05
G00X6.98Y-4.9095
M15
G01X6.9821Y-4.933
M16
G05
G00X6.9838Y-4.9526
M15
G01X6.9858Y-4.9762
M16
G05
G00X7.1364Y-4.6192
M15
G01X7.1385Y-4.6427
M16
G05
G00X7.1467Y-4.7368
M15
G01X7.1488Y-4.7604
M16
G05
G00X7.1604Y-4.8937
M15
G01X7.1625Y-4.9172
M16
G05
G00X7.1642Y-4.9369
M15
G01X7.1663Y-4.9604
M16
G05
T0
M30
