M48
; DRILL file {KiCad 6.99.0} date Wed 29 Dec 2021 05:54:07 PM CET
; FORMAT={-:-/ absolute / inch / decimal}
; #@! TF.CreationDate,2021-12-29T17:54:07+01:00
; #@! TF.GenerationSoftware,Kicad,Pcbnew,6.99.0
; #@! TF.FileFunction,NonPlated,1,2,NPTH
FMAT,2
INCH
; #@! TA.AperFunction,NonPlated,NPTH,ComponentDrill
T1C0.0591
; #@! TA.AperFunction,NonPlated,NPTH,ComponentDrill
T2C0.0670
; #@! TA.AperFunction,NonPlated,NPTH,ComponentDrill
T3C0.1350
%
G90
G05
T1
X7.0417Y-4.5761
X7.0657Y-4.8506
T2
X6.9379Y-5.4372
X6.9757Y-5.8686
X7.3694Y-5.3995
X7.4071Y-5.8309
X7.6929Y-4.7657
X7.6929Y-5.1988
X8.126Y-4.7657
X8.126Y-5.1988
X8.4016Y-4.5689
X8.4016Y-5.002
X8.8346Y-4.5689
X8.8346Y-5.002
X9.1102Y-4.8051
X9.1102Y-5.2382
X9.5433Y-4.8051
X9.5433Y-5.2382
X9.6417Y-6.0059
X9.6417Y-6.439
X10.0748Y-6.0059
X10.0748Y-6.439
T3
X7.1536Y-5.4184
X7.1914Y-5.8498
X7.9094Y-4.7657
X7.9094Y-5.1988
X8.6181Y-4.5689
X8.6181Y-5.002
X9.3268Y-4.8051
X9.3268Y-5.2382
X9.6417Y-6.2224
X10.0748Y-6.2224
T0
M30
