%TF.GenerationSoftware,KiCad,Pcbnew,6.99.0*%
%TF.CreationDate,2021-12-29T17:54:12+01:00*%
%TF.ProjectId,tiny20C,74696e79-3230-4432-9e6b-696361645f70,VERSION_HERE*%
%TF.SameCoordinates,Original*%
%TF.FileFunction,Soldermask,Bot*%
%TF.FilePolarity,Negative*%
%FSLAX46Y46*%
G04 Gerber Fmt 4.6, Leading zero omitted, Abs format (unit mm)*
G04 Created by KiCad (PCBNEW 6.99.0) date 2021-12-29 17:54:12*
%MOMM*%
%LPD*%
G01*
G04 APERTURE LIST*
G04 Aperture macros list*
%AMRoundRect*
0 Rectangle with rounded corners*
0 $1 Rounding radius*
0 $2 $3 $4 $5 $6 $7 $8 $9 X,Y pos of 4 corners*
0 Add a 4 corners polygon primitive as box body*
4,1,4,$2,$3,$4,$5,$6,$7,$8,$9,$2,$3,0*
0 Add four circle primitives for the rounded corners*
1,1,$1+$1,$2,$3*
1,1,$1+$1,$4,$5*
1,1,$1+$1,$6,$7*
1,1,$1+$1,$8,$9*
0 Add four rect primitives between the rounded corners*
20,1,$1+$1,$2,$3,$4,$5,0*
20,1,$1+$1,$4,$5,$6,$7,0*
20,1,$1+$1,$6,$7,$8,$9,0*
20,1,$1+$1,$8,$9,$2,$3,0*%
%AMHorizOval*
0 Thick line with rounded ends*
0 $1 width*
0 $2 $3 position (X,Y) of the first rounded end (center of the circle)*
0 $4 $5 position (X,Y) of the second rounded end (center of the circle)*
0 Add line between two ends*
20,1,$1,$2,$3,$4,$5,0*
0 Add two circle primitives to create the rounded ends*
1,1,$1,$2,$3*
1,1,$1,$4,$5*%
G04 Aperture macros list end*
%ADD10RoundRect,0.050000X0.550000X-0.900000X0.550000X0.900000X-0.550000X0.900000X-0.550000X-0.900000X0*%
%ADD11RoundRect,0.050000X-0.876300X0.876300X-0.876300X-0.876300X0.876300X-0.876300X0.876300X0.876300X0*%
%ADD12C,1.852600*%
%ADD13C,3.529000*%
%ADD14C,1.801800*%
%ADD15C,2.132000*%
%ADD16C,1.600000*%
%ADD17HorizOval,1.700000X-0.026147X0.298858X0.026147X-0.298858X0*%
G04 APERTURE END LIST*
D10*
%TO.C,B2*%
X185750000Y-117950000D03*
X185750000Y-124150000D03*
X189450000Y-117950000D03*
X189450000Y-124150000D03*
%TD*%
D11*
%TO.C,MCU1*%
X247330000Y-117580000D03*
D12*
X247330000Y-120120000D03*
X247330000Y-122660000D03*
X247330000Y-125200000D03*
X247330000Y-127740000D03*
X247330000Y-130280000D03*
X247330000Y-132820000D03*
X247330000Y-135360000D03*
X247330000Y-137900000D03*
X247330000Y-140440000D03*
X247330000Y-142980000D03*
X247330000Y-145520000D03*
X262570000Y-117580000D03*
X262570000Y-120120000D03*
X262570000Y-122660000D03*
X262570000Y-125200000D03*
X262570000Y-127740000D03*
X262570000Y-130280000D03*
X262570000Y-132820000D03*
X262570000Y-135360000D03*
X262570000Y-137900000D03*
X262570000Y-140440000D03*
X262570000Y-142980000D03*
X262570000Y-145520000D03*
%TD*%
D13*
%TO.C,S1*%
X182661365Y-148584351D03*
D14*
X188140436Y-148104994D03*
X177182294Y-149063708D03*
D15*
X178011583Y-152805670D03*
X187973530Y-151934112D03*
X183175584Y-154461900D03*
X183175584Y-154461900D03*
%TD*%
D14*
%TO.C,S7*%
X231400000Y-133050000D03*
D13*
X236900000Y-133050000D03*
D14*
X242400000Y-133050000D03*
D15*
X241900000Y-136850000D03*
X231900000Y-136850000D03*
X236900000Y-138950000D03*
X236900000Y-138950000D03*
%TD*%
D14*
%TO.C,S3*%
X195400000Y-132050000D03*
D13*
X200900000Y-132050000D03*
D14*
X206400000Y-132050000D03*
D15*
X205900000Y-135850000D03*
X195900000Y-135850000D03*
X200900000Y-137950000D03*
X200900000Y-137950000D03*
%TD*%
D13*
%TO.C,S6*%
X218900000Y-116050000D03*
D14*
X224400000Y-116050000D03*
X213400000Y-116050000D03*
D15*
X213900000Y-112250000D03*
X223900000Y-112250000D03*
X218900000Y-110150000D03*
X218900000Y-110150000D03*
%TD*%
D14*
%TO.C,S9*%
X244900000Y-163550000D03*
D13*
X244900000Y-158050000D03*
D14*
X244900000Y-152550000D03*
D15*
X241100000Y-163050000D03*
X241100000Y-153050000D03*
X239000000Y-158050000D03*
X239000000Y-158050000D03*
%TD*%
D14*
%TO.C,S2*%
X176223580Y-138105566D03*
X187181722Y-137146852D03*
D13*
X181702651Y-137626209D03*
D15*
X186352433Y-133404890D03*
X176390486Y-134276448D03*
X181188432Y-131748660D03*
X181188432Y-131748660D03*
%TD*%
D14*
%TO.C,S8*%
X242400000Y-122050000D03*
X231400000Y-122050000D03*
D13*
X236900000Y-122050000D03*
D15*
X231900000Y-118250000D03*
X241900000Y-118250000D03*
X236900000Y-116150000D03*
X236900000Y-116150000D03*
%TD*%
D14*
%TO.C,S4*%
X206400000Y-121050000D03*
D13*
X200900000Y-121050000D03*
D14*
X195400000Y-121050000D03*
D15*
X195900000Y-117250000D03*
X205900000Y-117250000D03*
X200900000Y-115150000D03*
X200900000Y-115150000D03*
%TD*%
D16*
%TO.C,REF\u002A\u002A*%
X178859957Y-116232466D03*
X179470048Y-123205829D03*
D17*
X181996616Y-125695096D03*
X177414120Y-126096013D03*
X181900745Y-124599282D03*
X177318249Y-125000198D03*
X176969626Y-121015420D03*
X181552122Y-120614503D03*
X181290654Y-117625919D03*
X176708159Y-118026835D03*
%TD*%
D14*
%TO.C,S10*%
X255900000Y-163550000D03*
D13*
X255900000Y-158050000D03*
D14*
X255900000Y-152550000D03*
D15*
X259700000Y-163050000D03*
X259700000Y-153050000D03*
X261800000Y-158050000D03*
X261800000Y-158050000D03*
%TD*%
D14*
%TO.C,S5*%
X213400000Y-127050000D03*
X224400000Y-127050000D03*
D13*
X218900000Y-127050000D03*
D15*
X213900000Y-130850000D03*
X223900000Y-130850000D03*
X218900000Y-132950000D03*
X218900000Y-132950000D03*
%TD*%
M02*
