M48
; DRILL file {KiCad (6.99.0-1698-gc3bed8f6ee)} date Wed Aug 24 14:05:45 2022
; FORMAT={-:-/ absolute / inch / decimal}
; #@! TF.CreationDate,2022-08-24T14:05:45+02:00
; #@! TF.GenerationSoftware,Kicad,Pcbnew,(6.99.0-1698-gc3bed8f6ee)
; #@! TF.FileFunction,NonPlated,1,2,NPTH
FMAT,2
INCH
; #@! TA.AperFunction,NonPlated,NPTH,ComponentDrill
T1C0.0354
; #@! TA.AperFunction,NonPlated,NPTH,ComponentDrill
T2C0.0591
; #@! TA.AperFunction,NonPlated,NPTH,ComponentDrill
T3C0.0670
; #@! TA.AperFunction,NonPlated,NPTH,ComponentDrill
T4C0.1350
%
G90
G05
T1
X11.1689Y-4.9768
X11.1689Y-4.9768
X11.1689Y-5.0949
X11.1689Y-5.0949
T2
X7.7968Y-4.1965
X7.8208Y-4.471
X7.887Y-4.1886
X7.911Y-4.4631
T3
X7.7492Y-4.9634
X7.8076Y-5.6301
X8.1807Y-4.9256
X8.239Y-5.5924
X8.5248Y-4.291
X8.5248Y-4.9603
X8.9579Y-4.291
X8.9579Y-4.9603
X9.2335Y-4.7634
X9.2335Y-4.0941
X9.6665Y-4.7634
X9.6665Y-4.0941
X9.9421Y-4.9996
X9.9421Y-4.3303
X10.2374Y-5.5705
X10.2374Y-6.0036
X10.3752Y-4.9996
X10.3752Y-4.3303
X10.9067Y-5.5705
X10.9067Y-6.0036
T4
X7.965Y-4.9445
X8.0233Y-5.6112
X8.7413Y-4.291
X8.7413Y-4.9603
X9.45Y-4.7634
X9.45Y-4.0941
X10.1587Y-4.9996
X10.1587Y-4.3303
X10.2374Y-5.787
X10.9067Y-5.787
T0
M30
