%TF.GenerationSoftware,KiCad,Pcbnew,(6.99.0-1698-gc3bed8f6ee)*%
%TF.CreationDate,2022-08-24T14:05:48+02:00*%
%TF.ProjectId,tiny20_xiao,74696e79-3230-45f7-9869-616f2e6b6963,v1.0.0*%
%TF.SameCoordinates,Original*%
%TF.FileFunction,Legend,Top*%
%TF.FilePolarity,Positive*%
%FSLAX46Y46*%
G04 Gerber Fmt 4.6, Leading zero omitted, Abs format (unit mm)*
G04 Created by KiCad (PCBNEW (6.99.0-1698-gc3bed8f6ee)) date 2022-08-24 14:05:48*
%MOMM*%
%LPD*%
G01*
G04 APERTURE LIST*
%ADD10C,0.150000*%
%ADD11C,0.101600*%
%ADD12C,0.120000*%
G04 APERTURE END LIST*
D10*
%TO.C,B1*%
X208354644Y-112296793D02*
X208415120Y-112115365D01*
X208415120Y-112115365D02*
X208475597Y-112054888D01*
X208475597Y-112054888D02*
X208596549Y-111994412D01*
X208596549Y-111994412D02*
X208777978Y-111994412D01*
X208777978Y-111994412D02*
X208898930Y-112054888D01*
X208898930Y-112054888D02*
X208959406Y-112115365D01*
X208959406Y-112115365D02*
X209019882Y-112236317D01*
X209019882Y-112236317D02*
X209019882Y-112720127D01*
X209019882Y-112720127D02*
X207749882Y-112720127D01*
X207749882Y-112720127D02*
X207749882Y-112296793D01*
X207749882Y-112296793D02*
X207810359Y-112175841D01*
X207810359Y-112175841D02*
X207870835Y-112115365D01*
X207870835Y-112115365D02*
X207991787Y-112054888D01*
X207991787Y-112054888D02*
X208112739Y-112054888D01*
X208112739Y-112054888D02*
X208233692Y-112115365D01*
X208233692Y-112115365D02*
X208294168Y-112175841D01*
X208294168Y-112175841D02*
X208354644Y-112296793D01*
X208354644Y-112296793D02*
X208354644Y-112720127D01*
X209019882Y-110784888D02*
X209019882Y-111510603D01*
X209019882Y-111147746D02*
X207749882Y-111147746D01*
X207749882Y-111147746D02*
X207931311Y-111268698D01*
X207931311Y-111268698D02*
X208052263Y-111389650D01*
X208052263Y-111389650D02*
X208112739Y-111510603D01*
%TO.C,S3*%
X221231015Y-129811744D02*
X221412444Y-129872220D01*
X221412444Y-129872220D02*
X221714825Y-129872220D01*
X221714825Y-129872220D02*
X221835777Y-129811744D01*
X221835777Y-129811744D02*
X221896253Y-129751268D01*
X221896253Y-129751268D02*
X221956730Y-129630316D01*
X221956730Y-129630316D02*
X221956730Y-129509363D01*
X221956730Y-129509363D02*
X221896253Y-129388411D01*
X221896253Y-129388411D02*
X221835777Y-129327935D01*
X221835777Y-129327935D02*
X221714825Y-129267458D01*
X221714825Y-129267458D02*
X221472920Y-129206982D01*
X221472920Y-129206982D02*
X221351968Y-129146506D01*
X221351968Y-129146506D02*
X221291491Y-129086030D01*
X221291491Y-129086030D02*
X221231015Y-128965077D01*
X221231015Y-128965077D02*
X221231015Y-128844125D01*
X221231015Y-128844125D02*
X221291491Y-128723173D01*
X221291491Y-128723173D02*
X221351968Y-128662697D01*
X221351968Y-128662697D02*
X221472920Y-128602220D01*
X221472920Y-128602220D02*
X221775301Y-128602220D01*
X221775301Y-128602220D02*
X221956730Y-128662697D01*
X222380063Y-128602220D02*
X223166254Y-128602220D01*
X223166254Y-128602220D02*
X222742920Y-129086030D01*
X222742920Y-129086030D02*
X222924349Y-129086030D01*
X222924349Y-129086030D02*
X223045301Y-129146506D01*
X223045301Y-129146506D02*
X223105777Y-129206982D01*
X223105777Y-129206982D02*
X223166254Y-129327935D01*
X223166254Y-129327935D02*
X223166254Y-129630316D01*
X223166254Y-129630316D02*
X223105777Y-129751268D01*
X223105777Y-129751268D02*
X223045301Y-129811744D01*
X223045301Y-129811744D02*
X222924349Y-129872220D01*
X222924349Y-129872220D02*
X222561492Y-129872220D01*
X222561492Y-129872220D02*
X222440539Y-129811744D01*
X222440539Y-129811744D02*
X222380063Y-129751268D01*
%TO.C,S9*%
X259231014Y-150811747D02*
X259412443Y-150872223D01*
X259412443Y-150872223D02*
X259714824Y-150872223D01*
X259714824Y-150872223D02*
X259835776Y-150811747D01*
X259835776Y-150811747D02*
X259896252Y-150751271D01*
X259896252Y-150751271D02*
X259956729Y-150630319D01*
X259956729Y-150630319D02*
X259956729Y-150509366D01*
X259956729Y-150509366D02*
X259896252Y-150388414D01*
X259896252Y-150388414D02*
X259835776Y-150327938D01*
X259835776Y-150327938D02*
X259714824Y-150267461D01*
X259714824Y-150267461D02*
X259472919Y-150206985D01*
X259472919Y-150206985D02*
X259351967Y-150146509D01*
X259351967Y-150146509D02*
X259291490Y-150086033D01*
X259291490Y-150086033D02*
X259231014Y-149965080D01*
X259231014Y-149965080D02*
X259231014Y-149844128D01*
X259231014Y-149844128D02*
X259291490Y-149723176D01*
X259291490Y-149723176D02*
X259351967Y-149662700D01*
X259351967Y-149662700D02*
X259472919Y-149602223D01*
X259472919Y-149602223D02*
X259775300Y-149602223D01*
X259775300Y-149602223D02*
X259956729Y-149662700D01*
X260561491Y-150872223D02*
X260803395Y-150872223D01*
X260803395Y-150872223D02*
X260924348Y-150811747D01*
X260924348Y-150811747D02*
X260984824Y-150751271D01*
X260984824Y-150751271D02*
X261105776Y-150569842D01*
X261105776Y-150569842D02*
X261166253Y-150327938D01*
X261166253Y-150327938D02*
X261166253Y-149844128D01*
X261166253Y-149844128D02*
X261105776Y-149723176D01*
X261105776Y-149723176D02*
X261045300Y-149662700D01*
X261045300Y-149662700D02*
X260924348Y-149602223D01*
X260924348Y-149602223D02*
X260682443Y-149602223D01*
X260682443Y-149602223D02*
X260561491Y-149662700D01*
X260561491Y-149662700D02*
X260501014Y-149723176D01*
X260501014Y-149723176D02*
X260440538Y-149844128D01*
X260440538Y-149844128D02*
X260440538Y-150146509D01*
X260440538Y-150146509D02*
X260501014Y-150267461D01*
X260501014Y-150267461D02*
X260561491Y-150327938D01*
X260561491Y-150327938D02*
X260682443Y-150388414D01*
X260682443Y-150388414D02*
X260924348Y-150388414D01*
X260924348Y-150388414D02*
X261045300Y-150327938D01*
X261045300Y-150327938D02*
X261105776Y-150267461D01*
X261105776Y-150267461D02*
X261166253Y-150146509D01*
%TO.C,S7*%
X257231014Y-130811743D02*
X257412443Y-130872219D01*
X257412443Y-130872219D02*
X257714824Y-130872219D01*
X257714824Y-130872219D02*
X257835776Y-130811743D01*
X257835776Y-130811743D02*
X257896252Y-130751267D01*
X257896252Y-130751267D02*
X257956729Y-130630315D01*
X257956729Y-130630315D02*
X257956729Y-130509362D01*
X257956729Y-130509362D02*
X257896252Y-130388410D01*
X257896252Y-130388410D02*
X257835776Y-130327934D01*
X257835776Y-130327934D02*
X257714824Y-130267457D01*
X257714824Y-130267457D02*
X257472919Y-130206981D01*
X257472919Y-130206981D02*
X257351967Y-130146505D01*
X257351967Y-130146505D02*
X257291490Y-130086029D01*
X257291490Y-130086029D02*
X257231014Y-129965076D01*
X257231014Y-129965076D02*
X257231014Y-129844124D01*
X257231014Y-129844124D02*
X257291490Y-129723172D01*
X257291490Y-129723172D02*
X257351967Y-129662696D01*
X257351967Y-129662696D02*
X257472919Y-129602219D01*
X257472919Y-129602219D02*
X257775300Y-129602219D01*
X257775300Y-129602219D02*
X257956729Y-129662696D01*
X258380062Y-129602219D02*
X259226729Y-129602219D01*
X259226729Y-129602219D02*
X258682443Y-130872219D01*
%TO.C,S4*%
X221231015Y-112811744D02*
X221412444Y-112872220D01*
X221412444Y-112872220D02*
X221714825Y-112872220D01*
X221714825Y-112872220D02*
X221835777Y-112811744D01*
X221835777Y-112811744D02*
X221896253Y-112751268D01*
X221896253Y-112751268D02*
X221956730Y-112630316D01*
X221956730Y-112630316D02*
X221956730Y-112509363D01*
X221956730Y-112509363D02*
X221896253Y-112388411D01*
X221896253Y-112388411D02*
X221835777Y-112327935D01*
X221835777Y-112327935D02*
X221714825Y-112267458D01*
X221714825Y-112267458D02*
X221472920Y-112206982D01*
X221472920Y-112206982D02*
X221351968Y-112146506D01*
X221351968Y-112146506D02*
X221291491Y-112086030D01*
X221291491Y-112086030D02*
X221231015Y-111965077D01*
X221231015Y-111965077D02*
X221231015Y-111844125D01*
X221231015Y-111844125D02*
X221291491Y-111723173D01*
X221291491Y-111723173D02*
X221351968Y-111662697D01*
X221351968Y-111662697D02*
X221472920Y-111602220D01*
X221472920Y-111602220D02*
X221775301Y-111602220D01*
X221775301Y-111602220D02*
X221956730Y-111662697D01*
X223045301Y-112025554D02*
X223045301Y-112872220D01*
X222742920Y-111541744D02*
X222440539Y-112448887D01*
X222440539Y-112448887D02*
X223226730Y-112448887D01*
%TO.C,S6*%
X239231015Y-107811746D02*
X239412444Y-107872222D01*
X239412444Y-107872222D02*
X239714825Y-107872222D01*
X239714825Y-107872222D02*
X239835777Y-107811746D01*
X239835777Y-107811746D02*
X239896253Y-107751270D01*
X239896253Y-107751270D02*
X239956730Y-107630318D01*
X239956730Y-107630318D02*
X239956730Y-107509365D01*
X239956730Y-107509365D02*
X239896253Y-107388413D01*
X239896253Y-107388413D02*
X239835777Y-107327937D01*
X239835777Y-107327937D02*
X239714825Y-107267460D01*
X239714825Y-107267460D02*
X239472920Y-107206984D01*
X239472920Y-107206984D02*
X239351968Y-107146508D01*
X239351968Y-107146508D02*
X239291491Y-107086032D01*
X239291491Y-107086032D02*
X239231015Y-106965079D01*
X239231015Y-106965079D02*
X239231015Y-106844127D01*
X239231015Y-106844127D02*
X239291491Y-106723175D01*
X239291491Y-106723175D02*
X239351968Y-106662699D01*
X239351968Y-106662699D02*
X239472920Y-106602222D01*
X239472920Y-106602222D02*
X239775301Y-106602222D01*
X239775301Y-106602222D02*
X239956730Y-106662699D01*
X241045301Y-106602222D02*
X240803396Y-106602222D01*
X240803396Y-106602222D02*
X240682444Y-106662699D01*
X240682444Y-106662699D02*
X240621968Y-106723175D01*
X240621968Y-106723175D02*
X240501015Y-106904603D01*
X240501015Y-106904603D02*
X240440539Y-107146508D01*
X240440539Y-107146508D02*
X240440539Y-107630318D01*
X240440539Y-107630318D02*
X240501015Y-107751270D01*
X240501015Y-107751270D02*
X240561492Y-107811746D01*
X240561492Y-107811746D02*
X240682444Y-107872222D01*
X240682444Y-107872222D02*
X240924349Y-107872222D01*
X240924349Y-107872222D02*
X241045301Y-107811746D01*
X241045301Y-107811746D02*
X241105777Y-107751270D01*
X241105777Y-107751270D02*
X241166254Y-107630318D01*
X241166254Y-107630318D02*
X241166254Y-107327937D01*
X241166254Y-107327937D02*
X241105777Y-107206984D01*
X241105777Y-107206984D02*
X241045301Y-107146508D01*
X241045301Y-107146508D02*
X240924349Y-107086032D01*
X240924349Y-107086032D02*
X240682444Y-107086032D01*
X240682444Y-107086032D02*
X240561492Y-107146508D01*
X240561492Y-107146508D02*
X240501015Y-107206984D01*
X240501015Y-107206984D02*
X240440539Y-107327937D01*
D11*
%TO.C,U1*%
X275228666Y-108645602D02*
X275228666Y-109365269D01*
X275228666Y-109365269D02*
X275271000Y-109449936D01*
X275271000Y-109449936D02*
X275313333Y-109492269D01*
X275313333Y-109492269D02*
X275398000Y-109534602D01*
X275398000Y-109534602D02*
X275567333Y-109534602D01*
X275567333Y-109534602D02*
X275652000Y-109492269D01*
X275652000Y-109492269D02*
X275694333Y-109449936D01*
X275694333Y-109449936D02*
X275736666Y-109365269D01*
X275736666Y-109365269D02*
X275736666Y-108645602D01*
X276625666Y-109534602D02*
X276117666Y-109534602D01*
X276371666Y-109534602D02*
X276371666Y-108645602D01*
X276371666Y-108645602D02*
X276286999Y-108772602D01*
X276286999Y-108772602D02*
X276202333Y-108857269D01*
X276202333Y-108857269D02*
X276117666Y-108899602D01*
D10*
%TO.C,S1*%
X203031456Y-146428885D02*
X203217465Y-146473319D01*
X203217465Y-146473319D02*
X203518695Y-146446965D01*
X203518695Y-146446965D02*
X203633917Y-146376177D01*
X203633917Y-146376177D02*
X203688892Y-146310660D01*
X203688892Y-146310660D02*
X203738596Y-146184897D01*
X203738596Y-146184897D02*
X203728055Y-146064405D01*
X203728055Y-146064405D02*
X203657267Y-145949184D01*
X203657267Y-145949184D02*
X203591750Y-145894208D01*
X203591750Y-145894208D02*
X203465987Y-145844504D01*
X203465987Y-145844504D02*
X203219732Y-145805341D01*
X203219732Y-145805341D02*
X203093969Y-145755637D01*
X203093969Y-145755637D02*
X203028452Y-145700662D01*
X203028452Y-145700662D02*
X202957664Y-145585441D01*
X202957664Y-145585441D02*
X202947123Y-145464948D01*
X202947123Y-145464948D02*
X202996827Y-145339185D01*
X202996827Y-145339185D02*
X203051802Y-145273669D01*
X203051802Y-145273669D02*
X203167023Y-145202881D01*
X203167023Y-145202881D02*
X203468254Y-145176527D01*
X203468254Y-145176527D02*
X203654263Y-145220960D01*
X204964601Y-146320464D02*
X204241648Y-146383714D01*
X204603125Y-146352089D02*
X204492437Y-145086922D01*
X204492437Y-145086922D02*
X204387757Y-145278202D01*
X204387757Y-145278202D02*
X204277807Y-145409236D01*
X204277807Y-145409236D02*
X204162586Y-145480024D01*
%TO.C,S8*%
X257231015Y-113811745D02*
X257412444Y-113872221D01*
X257412444Y-113872221D02*
X257714825Y-113872221D01*
X257714825Y-113872221D02*
X257835777Y-113811745D01*
X257835777Y-113811745D02*
X257896253Y-113751269D01*
X257896253Y-113751269D02*
X257956730Y-113630317D01*
X257956730Y-113630317D02*
X257956730Y-113509364D01*
X257956730Y-113509364D02*
X257896253Y-113388412D01*
X257896253Y-113388412D02*
X257835777Y-113327936D01*
X257835777Y-113327936D02*
X257714825Y-113267459D01*
X257714825Y-113267459D02*
X257472920Y-113206983D01*
X257472920Y-113206983D02*
X257351968Y-113146507D01*
X257351968Y-113146507D02*
X257291491Y-113086031D01*
X257291491Y-113086031D02*
X257231015Y-112965078D01*
X257231015Y-112965078D02*
X257231015Y-112844126D01*
X257231015Y-112844126D02*
X257291491Y-112723174D01*
X257291491Y-112723174D02*
X257351968Y-112662698D01*
X257351968Y-112662698D02*
X257472920Y-112602221D01*
X257472920Y-112602221D02*
X257775301Y-112602221D01*
X257775301Y-112602221D02*
X257956730Y-112662698D01*
X258682444Y-113146507D02*
X258561492Y-113086031D01*
X258561492Y-113086031D02*
X258501015Y-113025555D01*
X258501015Y-113025555D02*
X258440539Y-112904602D01*
X258440539Y-112904602D02*
X258440539Y-112844126D01*
X258440539Y-112844126D02*
X258501015Y-112723174D01*
X258501015Y-112723174D02*
X258561492Y-112662698D01*
X258561492Y-112662698D02*
X258682444Y-112602221D01*
X258682444Y-112602221D02*
X258924349Y-112602221D01*
X258924349Y-112602221D02*
X259045301Y-112662698D01*
X259045301Y-112662698D02*
X259105777Y-112723174D01*
X259105777Y-112723174D02*
X259166254Y-112844126D01*
X259166254Y-112844126D02*
X259166254Y-112904602D01*
X259166254Y-112904602D02*
X259105777Y-113025555D01*
X259105777Y-113025555D02*
X259045301Y-113086031D01*
X259045301Y-113086031D02*
X258924349Y-113146507D01*
X258924349Y-113146507D02*
X258682444Y-113146507D01*
X258682444Y-113146507D02*
X258561492Y-113206983D01*
X258561492Y-113206983D02*
X258501015Y-113267459D01*
X258501015Y-113267459D02*
X258440539Y-113388412D01*
X258440539Y-113388412D02*
X258440539Y-113630317D01*
X258440539Y-113630317D02*
X258501015Y-113751269D01*
X258501015Y-113751269D02*
X258561492Y-113811745D01*
X258561492Y-113811745D02*
X258682444Y-113872221D01*
X258682444Y-113872221D02*
X258924349Y-113872221D01*
X258924349Y-113872221D02*
X259045301Y-113811745D01*
X259045301Y-113811745D02*
X259105777Y-113751269D01*
X259105777Y-113751269D02*
X259166254Y-113630317D01*
X259166254Y-113630317D02*
X259166254Y-113388412D01*
X259166254Y-113388412D02*
X259105777Y-113267459D01*
X259105777Y-113267459D02*
X259045301Y-113206983D01*
X259045301Y-113206983D02*
X258924349Y-113146507D01*
%TO.C,S2*%
X201549807Y-129493573D02*
X201735816Y-129538007D01*
X201735816Y-129538007D02*
X202037046Y-129511653D01*
X202037046Y-129511653D02*
X202152268Y-129440865D01*
X202152268Y-129440865D02*
X202207243Y-129375348D01*
X202207243Y-129375348D02*
X202256947Y-129249585D01*
X202256947Y-129249585D02*
X202246406Y-129129093D01*
X202246406Y-129129093D02*
X202175618Y-129013872D01*
X202175618Y-129013872D02*
X202110101Y-128958896D01*
X202110101Y-128958896D02*
X201984338Y-128909192D01*
X201984338Y-128909192D02*
X201738083Y-128870029D01*
X201738083Y-128870029D02*
X201612320Y-128820325D01*
X201612320Y-128820325D02*
X201546803Y-128765350D01*
X201546803Y-128765350D02*
X201476015Y-128650129D01*
X201476015Y-128650129D02*
X201465474Y-128529636D01*
X201465474Y-128529636D02*
X201515178Y-128403873D01*
X201515178Y-128403873D02*
X201570153Y-128338357D01*
X201570153Y-128338357D02*
X201685374Y-128267569D01*
X201685374Y-128267569D02*
X201986605Y-128241215D01*
X201986605Y-128241215D02*
X202172614Y-128285648D01*
X202659853Y-128303727D02*
X202714828Y-128238210D01*
X202714828Y-128238210D02*
X202830050Y-128167423D01*
X202830050Y-128167423D02*
X203131280Y-128141068D01*
X203131280Y-128141068D02*
X203257043Y-128190773D01*
X203257043Y-128190773D02*
X203322560Y-128245748D01*
X203322560Y-128245748D02*
X203393348Y-128360969D01*
X203393348Y-128360969D02*
X203403889Y-128481461D01*
X203403889Y-128481461D02*
X203359456Y-128667470D01*
X203359456Y-128667470D02*
X202699753Y-129453673D01*
X202699753Y-129453673D02*
X203482952Y-129385152D01*
%TO.C,SW01*%
X285279761Y-129799523D02*
X285327380Y-129656666D01*
X285327380Y-129656666D02*
X285327380Y-129418571D01*
X285327380Y-129418571D02*
X285279761Y-129323333D01*
X285279761Y-129323333D02*
X285232142Y-129275714D01*
X285232142Y-129275714D02*
X285136904Y-129228095D01*
X285136904Y-129228095D02*
X285041666Y-129228095D01*
X285041666Y-129228095D02*
X284946428Y-129275714D01*
X284946428Y-129275714D02*
X284898809Y-129323333D01*
X284898809Y-129323333D02*
X284851190Y-129418571D01*
X284851190Y-129418571D02*
X284803571Y-129609047D01*
X284803571Y-129609047D02*
X284755952Y-129704285D01*
X284755952Y-129704285D02*
X284708333Y-129751904D01*
X284708333Y-129751904D02*
X284613095Y-129799523D01*
X284613095Y-129799523D02*
X284517857Y-129799523D01*
X284517857Y-129799523D02*
X284422619Y-129751904D01*
X284422619Y-129751904D02*
X284375000Y-129704285D01*
X284375000Y-129704285D02*
X284327380Y-129609047D01*
X284327380Y-129609047D02*
X284327380Y-129370952D01*
X284327380Y-129370952D02*
X284375000Y-129228095D01*
X284327380Y-128894761D02*
X285327380Y-128656666D01*
X285327380Y-128656666D02*
X284613095Y-128466190D01*
X284613095Y-128466190D02*
X285327380Y-128275714D01*
X285327380Y-128275714D02*
X284327380Y-128037619D01*
X284327380Y-127466190D02*
X284327380Y-127370952D01*
X284327380Y-127370952D02*
X284375000Y-127275714D01*
X284375000Y-127275714D02*
X284422619Y-127228095D01*
X284422619Y-127228095D02*
X284517857Y-127180476D01*
X284517857Y-127180476D02*
X284708333Y-127132857D01*
X284708333Y-127132857D02*
X284946428Y-127132857D01*
X284946428Y-127132857D02*
X285136904Y-127180476D01*
X285136904Y-127180476D02*
X285232142Y-127228095D01*
X285232142Y-127228095D02*
X285279761Y-127275714D01*
X285279761Y-127275714D02*
X285327380Y-127370952D01*
X285327380Y-127370952D02*
X285327380Y-127466190D01*
X285327380Y-127466190D02*
X285279761Y-127561428D01*
X285279761Y-127561428D02*
X285232142Y-127609047D01*
X285232142Y-127609047D02*
X285136904Y-127656666D01*
X285136904Y-127656666D02*
X284946428Y-127704285D01*
X284946428Y-127704285D02*
X284708333Y-127704285D01*
X284708333Y-127704285D02*
X284517857Y-127656666D01*
X284517857Y-127656666D02*
X284422619Y-127609047D01*
X284422619Y-127609047D02*
X284375000Y-127561428D01*
X284375000Y-127561428D02*
X284327380Y-127466190D01*
X285327380Y-126180476D02*
X285327380Y-126751904D01*
X285327380Y-126466190D02*
X284327380Y-126466190D01*
X284327380Y-126466190D02*
X284470238Y-126561428D01*
X284470238Y-126561428D02*
X284565476Y-126656666D01*
X284565476Y-126656666D02*
X284613095Y-126751904D01*
%TO.C,S10*%
X275626252Y-150811744D02*
X275807681Y-150872220D01*
X275807681Y-150872220D02*
X276110062Y-150872220D01*
X276110062Y-150872220D02*
X276231014Y-150811744D01*
X276231014Y-150811744D02*
X276291490Y-150751268D01*
X276291490Y-150751268D02*
X276351967Y-150630316D01*
X276351967Y-150630316D02*
X276351967Y-150509363D01*
X276351967Y-150509363D02*
X276291490Y-150388411D01*
X276291490Y-150388411D02*
X276231014Y-150327935D01*
X276231014Y-150327935D02*
X276110062Y-150267458D01*
X276110062Y-150267458D02*
X275868157Y-150206982D01*
X275868157Y-150206982D02*
X275747205Y-150146506D01*
X275747205Y-150146506D02*
X275686728Y-150086030D01*
X275686728Y-150086030D02*
X275626252Y-149965077D01*
X275626252Y-149965077D02*
X275626252Y-149844125D01*
X275626252Y-149844125D02*
X275686728Y-149723173D01*
X275686728Y-149723173D02*
X275747205Y-149662697D01*
X275747205Y-149662697D02*
X275868157Y-149602220D01*
X275868157Y-149602220D02*
X276170538Y-149602220D01*
X276170538Y-149602220D02*
X276351967Y-149662697D01*
X277561491Y-150872220D02*
X276835776Y-150872220D01*
X277198633Y-150872220D02*
X277198633Y-149602220D01*
X277198633Y-149602220D02*
X277077681Y-149783649D01*
X277077681Y-149783649D02*
X276956729Y-149904601D01*
X276956729Y-149904601D02*
X276835776Y-149965077D01*
X278347681Y-149602220D02*
X278468634Y-149602220D01*
X278468634Y-149602220D02*
X278589586Y-149662697D01*
X278589586Y-149662697D02*
X278650062Y-149723173D01*
X278650062Y-149723173D02*
X278710538Y-149844125D01*
X278710538Y-149844125D02*
X278771015Y-150086030D01*
X278771015Y-150086030D02*
X278771015Y-150388411D01*
X278771015Y-150388411D02*
X278710538Y-150630316D01*
X278710538Y-150630316D02*
X278650062Y-150751268D01*
X278650062Y-150751268D02*
X278589586Y-150811744D01*
X278589586Y-150811744D02*
X278468634Y-150872220D01*
X278468634Y-150872220D02*
X278347681Y-150872220D01*
X278347681Y-150872220D02*
X278226729Y-150811744D01*
X278226729Y-150811744D02*
X278166253Y-150751268D01*
X278166253Y-150751268D02*
X278105776Y-150630316D01*
X278105776Y-150630316D02*
X278045300Y-150388411D01*
X278045300Y-150388411D02*
X278045300Y-150086030D01*
X278045300Y-150086030D02*
X278105776Y-149844125D01*
X278105776Y-149844125D02*
X278166253Y-149723173D01*
X278166253Y-149723173D02*
X278226729Y-149662697D01*
X278226729Y-149662697D02*
X278347681Y-149602220D01*
%TO.C,S5*%
X239231013Y-124811745D02*
X239412442Y-124872221D01*
X239412442Y-124872221D02*
X239714823Y-124872221D01*
X239714823Y-124872221D02*
X239835775Y-124811745D01*
X239835775Y-124811745D02*
X239896251Y-124751269D01*
X239896251Y-124751269D02*
X239956728Y-124630317D01*
X239956728Y-124630317D02*
X239956728Y-124509364D01*
X239956728Y-124509364D02*
X239896251Y-124388412D01*
X239896251Y-124388412D02*
X239835775Y-124327936D01*
X239835775Y-124327936D02*
X239714823Y-124267459D01*
X239714823Y-124267459D02*
X239472918Y-124206983D01*
X239472918Y-124206983D02*
X239351966Y-124146507D01*
X239351966Y-124146507D02*
X239291489Y-124086031D01*
X239291489Y-124086031D02*
X239231013Y-123965078D01*
X239231013Y-123965078D02*
X239231013Y-123844126D01*
X239231013Y-123844126D02*
X239291489Y-123723174D01*
X239291489Y-123723174D02*
X239351966Y-123662698D01*
X239351966Y-123662698D02*
X239472918Y-123602221D01*
X239472918Y-123602221D02*
X239775299Y-123602221D01*
X239775299Y-123602221D02*
X239956728Y-123662698D01*
X241105775Y-123602221D02*
X240501013Y-123602221D01*
X240501013Y-123602221D02*
X240440537Y-124206983D01*
X240440537Y-124206983D02*
X240501013Y-124146507D01*
X240501013Y-124146507D02*
X240621966Y-124086031D01*
X240621966Y-124086031D02*
X240924347Y-124086031D01*
X240924347Y-124086031D02*
X241045299Y-124146507D01*
X241045299Y-124146507D02*
X241105775Y-124206983D01*
X241105775Y-124206983D02*
X241166252Y-124327936D01*
X241166252Y-124327936D02*
X241166252Y-124630317D01*
X241166252Y-124630317D02*
X241105775Y-124751269D01*
X241105775Y-124751269D02*
X241045299Y-124811745D01*
X241045299Y-124811745D02*
X240924347Y-124872221D01*
X240924347Y-124872221D02*
X240621966Y-124872221D01*
X240621966Y-124872221D02*
X240501013Y-124811745D01*
X240501013Y-124811745D02*
X240440537Y-124751269D01*
D12*
%TO.C,BT01*%
X278388570Y-132733571D02*
X278531427Y-132781190D01*
X278531427Y-132781190D02*
X278579046Y-132828809D01*
X278579046Y-132828809D02*
X278626665Y-132924047D01*
X278626665Y-132924047D02*
X278626665Y-133066904D01*
X278626665Y-133066904D02*
X278579046Y-133162142D01*
X278579046Y-133162142D02*
X278531427Y-133209761D01*
X278531427Y-133209761D02*
X278436189Y-133257380D01*
X278436189Y-133257380D02*
X278055237Y-133257380D01*
X278055237Y-133257380D02*
X278055237Y-132257380D01*
X278055237Y-132257380D02*
X278388570Y-132257380D01*
X278388570Y-132257380D02*
X278483808Y-132305000D01*
X278483808Y-132305000D02*
X278531427Y-132352619D01*
X278531427Y-132352619D02*
X278579046Y-132447857D01*
X278579046Y-132447857D02*
X278579046Y-132543095D01*
X278579046Y-132543095D02*
X278531427Y-132638333D01*
X278531427Y-132638333D02*
X278483808Y-132685952D01*
X278483808Y-132685952D02*
X278388570Y-132733571D01*
X278388570Y-132733571D02*
X278055237Y-132733571D01*
X279483808Y-133257380D02*
X279483808Y-132733571D01*
X279483808Y-132733571D02*
X279436189Y-132638333D01*
X279436189Y-132638333D02*
X279340951Y-132590714D01*
X279340951Y-132590714D02*
X279150475Y-132590714D01*
X279150475Y-132590714D02*
X279055237Y-132638333D01*
X279483808Y-133209761D02*
X279388570Y-133257380D01*
X279388570Y-133257380D02*
X279150475Y-133257380D01*
X279150475Y-133257380D02*
X279055237Y-133209761D01*
X279055237Y-133209761D02*
X279007618Y-133114523D01*
X279007618Y-133114523D02*
X279007618Y-133019285D01*
X279007618Y-133019285D02*
X279055237Y-132924047D01*
X279055237Y-132924047D02*
X279150475Y-132876428D01*
X279150475Y-132876428D02*
X279388570Y-132876428D01*
X279388570Y-132876428D02*
X279483808Y-132828809D01*
X279817142Y-132590714D02*
X280198094Y-132590714D01*
X279959999Y-132257380D02*
X279959999Y-133114523D01*
X279959999Y-133114523D02*
X280007618Y-133209761D01*
X280007618Y-133209761D02*
X280102856Y-133257380D01*
X280102856Y-133257380D02*
X280198094Y-133257380D01*
X280388571Y-132590714D02*
X280769523Y-132590714D01*
X280531428Y-132257380D02*
X280531428Y-133114523D01*
X280531428Y-133114523D02*
X280579047Y-133209761D01*
X280579047Y-133209761D02*
X280674285Y-133257380D01*
X280674285Y-133257380D02*
X280769523Y-133257380D01*
X281483809Y-133209761D02*
X281388571Y-133257380D01*
X281388571Y-133257380D02*
X281198095Y-133257380D01*
X281198095Y-133257380D02*
X281102857Y-133209761D01*
X281102857Y-133209761D02*
X281055238Y-133114523D01*
X281055238Y-133114523D02*
X281055238Y-132733571D01*
X281055238Y-132733571D02*
X281102857Y-132638333D01*
X281102857Y-132638333D02*
X281198095Y-132590714D01*
X281198095Y-132590714D02*
X281388571Y-132590714D01*
X281388571Y-132590714D02*
X281483809Y-132638333D01*
X281483809Y-132638333D02*
X281531428Y-132733571D01*
X281531428Y-132733571D02*
X281531428Y-132828809D01*
X281531428Y-132828809D02*
X281055238Y-132924047D01*
X281960000Y-133257380D02*
X281960000Y-132590714D01*
X281960000Y-132781190D02*
X282007619Y-132685952D01*
X282007619Y-132685952D02*
X282055238Y-132638333D01*
X282055238Y-132638333D02*
X282150476Y-132590714D01*
X282150476Y-132590714D02*
X282245714Y-132590714D01*
X282483810Y-132590714D02*
X282721905Y-133257380D01*
X282960000Y-132590714D02*
X282721905Y-133257380D01*
X282721905Y-133257380D02*
X282626667Y-133495476D01*
X282626667Y-133495476D02*
X282579048Y-133543095D01*
X282579048Y-133543095D02*
X282483810Y-133590714D01*
X278750476Y-137788666D02*
X278712381Y-137750571D01*
X278712381Y-137750571D02*
X278636190Y-137636285D01*
X278636190Y-137636285D02*
X278598095Y-137560095D01*
X278598095Y-137560095D02*
X278560000Y-137445809D01*
X278560000Y-137445809D02*
X278521905Y-137255333D01*
X278521905Y-137255333D02*
X278521905Y-137102952D01*
X278521905Y-137102952D02*
X278560000Y-136912476D01*
X278560000Y-136912476D02*
X278598095Y-136798190D01*
X278598095Y-136798190D02*
X278636190Y-136722000D01*
X278636190Y-136722000D02*
X278712381Y-136607714D01*
X278712381Y-136607714D02*
X278750476Y-136569619D01*
X279055238Y-137179142D02*
X279664762Y-137179142D01*
X279969523Y-137788666D02*
X280007618Y-137750571D01*
X280007618Y-137750571D02*
X280083809Y-137636285D01*
X280083809Y-137636285D02*
X280121904Y-137560095D01*
X280121904Y-137560095D02*
X280159999Y-137445809D01*
X280159999Y-137445809D02*
X280198095Y-137255333D01*
X280198095Y-137255333D02*
X280198095Y-137102952D01*
X280198095Y-137102952D02*
X280159999Y-136912476D01*
X280159999Y-136912476D02*
X280121904Y-136798190D01*
X280121904Y-136798190D02*
X280083809Y-136722000D01*
X280083809Y-136722000D02*
X280007618Y-136607714D01*
X280007618Y-136607714D02*
X279969523Y-136569619D01*
X280950476Y-137788666D02*
X280912381Y-137750571D01*
X280912381Y-137750571D02*
X280836190Y-137636285D01*
X280836190Y-137636285D02*
X280798095Y-137560095D01*
X280798095Y-137560095D02*
X280760000Y-137445809D01*
X280760000Y-137445809D02*
X280721905Y-137255333D01*
X280721905Y-137255333D02*
X280721905Y-137102952D01*
X280721905Y-137102952D02*
X280760000Y-136912476D01*
X280760000Y-136912476D02*
X280798095Y-136798190D01*
X280798095Y-136798190D02*
X280836190Y-136722000D01*
X280836190Y-136722000D02*
X280912381Y-136607714D01*
X280912381Y-136607714D02*
X280950476Y-136569619D01*
X281255238Y-137179142D02*
X281864762Y-137179142D01*
X281560000Y-137483904D02*
X281560000Y-136874380D01*
X282169523Y-137788666D02*
X282207618Y-137750571D01*
X282207618Y-137750571D02*
X282283809Y-137636285D01*
X282283809Y-137636285D02*
X282321904Y-137560095D01*
X282321904Y-137560095D02*
X282359999Y-137445809D01*
X282359999Y-137445809D02*
X282398095Y-137255333D01*
X282398095Y-137255333D02*
X282398095Y-137102952D01*
X282398095Y-137102952D02*
X282359999Y-136912476D01*
X282359999Y-136912476D02*
X282321904Y-136798190D01*
X282321904Y-136798190D02*
X282283809Y-136722000D01*
X282283809Y-136722000D02*
X282207618Y-136607714D01*
X282207618Y-136607714D02*
X282169523Y-136569619D01*
D10*
%TO.C,B1*%
X207303309Y-114532746D02*
X209803309Y-114532746D01*
X207303309Y-114532746D02*
X205803309Y-113032746D01*
X209803309Y-114532746D02*
X211303309Y-113032746D01*
X205803309Y-113032746D02*
X205803309Y-110532746D01*
X211303309Y-113032746D02*
X211303309Y-110532746D01*
X207303309Y-109032746D02*
X205803309Y-110532746D01*
X207303309Y-109032746D02*
X209803309Y-109032746D01*
X209803309Y-109032746D02*
X211303309Y-110532746D01*
%TD*%
M02*
