M48
; DRILL file {KiCad (6.99.0-1698-gc3bed8f6ee)} date Wed Aug 24 14:05:45 2022
; FORMAT={-:-/ absolute / inch / decimal}
; #@! TF.CreationDate,2022-08-24T14:05:45+02:00
; #@! TF.GenerationSoftware,Kicad,Pcbnew,(6.99.0-1698-gc3bed8f6ee)
; #@! TF.FileFunction,Plated,1,2,PTH
FMAT,2
INCH
; #@! TA.AperFunction,Plated,PTH,ViaDrill
T1C0.0157
; #@! TA.AperFunction,Plated,PTH,ComponentDrill
T2C0.0354
; #@! TA.AperFunction,Plated,PTH,ComponentDrill
T3C0.0394
; #@! TA.AperFunction,Plated,PTH,ComponentDrill
T4C0.0400
; #@! TA.AperFunction,Plated,PTH,ComponentDrill
T5C0.0500
%
G90
G05
T1
X8.1379Y-4.2788
X8.1379Y-4.5229
X11.0Y-5.32
X11.0354Y-4.9843
X11.08Y-5.32
T3
X10.5567Y-4.1409
X10.5567Y-4.2409
X10.5567Y-4.3409
X10.5567Y-4.4409
X10.5567Y-4.5409
X10.5567Y-4.6409
X10.5567Y-4.7409
X11.1567Y-4.1409
X11.1567Y-4.2409
X11.1567Y-4.3409
X11.1567Y-4.4409
X11.1567Y-4.5409
X11.1567Y-4.6409
X11.1567Y-4.7409
T4
X10.6817Y-4.3535
X10.6817Y-4.4285
X10.8067Y-4.1035
X10.8067Y-4.2035
X10.9067Y-4.1035
X10.9067Y-4.2035
X11.0067Y-4.8035
X11.0817Y-4.8035
T5
X7.7558Y-4.8126
X7.8141Y-5.4793
X7.9447Y-4.7131
X7.9447Y-4.7131
X8.003Y-5.3798
X8.003Y-5.3798
X8.148Y-4.7783
X8.2064Y-5.445
X8.5445Y-4.1414
X8.5445Y-4.8107
X8.7413Y-4.0587
X8.7413Y-4.0587
X8.7413Y-4.728
X8.7413Y-4.728
X8.9382Y-4.1414
X8.9382Y-4.8107
X9.2532Y-4.6138
X9.2532Y-3.9445
X9.45Y-4.5311
X9.45Y-4.5311
X9.45Y-3.8618
X9.45Y-3.8618
X9.6469Y-4.6138
X9.6469Y-3.9445
X9.9618Y-4.85
X9.9618Y-4.1807
X10.1587Y-4.7674
X10.1587Y-4.7674
X10.1587Y-4.0981
X10.1587Y-4.0981
X10.3555Y-4.85
X10.3555Y-4.1807
X10.387Y-5.5902
X10.387Y-5.9839
X10.4697Y-5.787
X10.4697Y-5.787
X10.6744Y-5.787
X10.6744Y-5.787
X10.7571Y-5.5902
X10.7571Y-5.9839
T2
G00X7.711Y-4.2553
M15
G01X7.7131Y-4.2789
M16
G05
G00X7.7213Y-4.373
M15
G01X7.7234Y-4.3965
M16
G05
G00X7.735Y-4.5299
M15
G01X7.7371Y-4.5534
M16
G05
G00X7.829Y-4.5651
M15
G01X7.8311Y-4.5887
M16
G05
G00X7.9192Y-4.5572
M15
G01X7.9213Y-4.5808
M16
G05
G00X7.9816Y-4.2317
M15
G01X7.9837Y-4.2552
M16
G05
G00X7.9919Y-4.3493
M15
G01X7.994Y-4.3728
M16
G05
G00X8.0057Y-4.5062
M15
G01X8.0077Y-4.5297
M16
G05
T0
M30
